<svg xmlns="http://www.w3.org/2000/svg"  viewBox="0 0 512 512" width="48px" height="48px"><path fill="#D6E5E5" d="M329.5 138.8c-.2-.7-.3-1.3-.5-2-9.7 14.5-28.2 20-44.8 22.2-14.6 2-29.5 1.6-44.2 2.6-16.9 1.1-34 2.1-50.9.1C179 160.5 167.5 158 160 151c-.2 1.6-.5 3.3-.7 4.9-1.6 11-3.2 22-4.8 33 22.2 5.1 44.7 10.5 67.5 11.3 15.4.5 30.2-1.5 45.4-3.9 13.5-2.2 27-4.5 40.1-8.3 5.5-1.6 11.2-3.2 16.3-5.9 2-1.1 4-2.2 5.7-3.7.3-.3 1.1-1.2 1.5-1.8-.6.9.6-1.7.2-.3.9-2.9 3.4-4.1 5.8-4.1C334.5 161.1 332 149.9 329.5 138.8zM352.4 239.9c-2.9 4.6-7.5 8.2-12.5 10.7-10.8 5.5-22.9 8.9-34.4 12.3-13.8 4-27.8 7.4-42.1 9.3-12.3 1.7-24.5 1.9-36.8 2.4-17.4.7-34.9 2.3-52.3.2-11.6-1.4-23.7-4.5-32.4-12-1.8 9.4-3.6 18.8-5.4 28.2 0 0 0 0 0 0 .7 4.3 6.1 7.4 10.8 9.2 7.2 2.8 15.1 4.1 22.7 5 15.5 1.9 31.2 1.9 46.8 1.7 25-.3 50.2.4 74.9-4.3 13.5-2.5 26.2-7 38.7-12.4 10.2-4.4 20.2-10.5 25.1-20.9 1-2.2 2.8-3 4.6-3C357.4 257.8 354.8 248.9 352.4 239.9z"/><path fill="#EF4823" d="M348.4 223.4c-3.1-13.3-6.1-26.5-9-39.8-5.3 7.5-15.9 11.1-24.2 13.6-14.4 4.5-29.2 7.2-44.1 9.6-16.1 2.6-32 5.1-48.4 4.4-23.8-1.1-46.9-6.1-70-11.4-2.5 16.5-5.2 33-8.3 49.4 6.5 11.7 23.3 14.1 35.3 15.1 15 1.2 30.1-.1 45.1-.7 10.8-.4 21.5-.4 32.2-1.7 12.8-1.5 25.4-4 37.8-7.5 11.1-3.1 22.4-6.3 33.2-10.5 6.2-2.4 17-6.9 16.4-15.1C344.3 225.9 346.2 224 348.4 223.4zM301.2 50.8c-.4-.5-1.6-1.4-2.4-1.8-7-3.8-15.2-5.3-22.9-6.5-13.9-2-27.8-2.5-41.8-2.3-10.4.2-21.5-1-31.7 1.4-7.5 1.7-15.4 4.2-21.6 8.9-3.7 2.8-5.3 5.6-4.8 8.7 12.2-4 27.2.5 39.2 3 10.8 2.3 21.3 3.6 32.3 4.1 14.1.6 28.8.3 41.8-6 3.7-1.8 10.4-4.7 12.2-8.9C301.5 51.2 301.4 51 301.2 50.8z"/><path fill="#EF4823" d="M305.8 63.2c-7.4 6.6-18.6 10.3-27.4 12.2-13.7 3-27.7 2.1-41.6 1.1-10.3-.7-20.1-2.9-30.2-5-8-1.6-18.1-4.4-26.4-2.1-1.1 3-5.3 4.8-8.5 3-.5 2.6-.9 5.3-1.3 7.9-2.5 18.9-5.4 37.7-8.2 56.6 1.1.5 2 1.4 2.7 2.8 4.6 9.8 21.8 10.9 30.8 11.6 14.8 1.2 29.8.2 44.6-.8 13.1-.9 26.4-.6 39.4-2.1 14.8-1.7 34-5.4 41.6-19.9 1.1-2.1 3-3 4.8-2.9C319.6 104.7 310.3 84.6 305.8 63.2zM373.3 471.5c-39.2 14.2-81.9 16.8-123.2 15-20-.9-39.9-2.7-59.7-5.2-18.7-2.4-37.4-4.1-55.9-7.8-28.3-5.7-61-16.5-79-39.8.6 2 1.3 4 2.2 6 5.5 13 15.9 21.8 28.1 28.5 28 15.3 60.1 22.4 91.5 26.9 27.3 3.9 55.4 6.1 83 6 27.8-.1 55.9-2.9 82.5-11.6 24.5-8.1 47.1-21.4 67.8-36.8.6-.5 1.3-1 1.9-1.4C400.2 459.8 386.8 466.6 373.3 471.5zM381.2 339.4c-1.4-7.9-3.2-15.8-4.6-23.7-2.4-13-8.1-25.8-12.6-38.3-2.7 4.7-6.3 8.9-10.6 12.3-9.3 7.5-21 12.3-32.1 16.4-13.7 5-28 8.1-42.5 9.7-22.5 2.5-45.3 2.2-67.9 2.3-17.4.1-35.1-.1-52.2-3.4-8-1.6-17.9-4-24.7-9.3-1.5 8-2.9 16-4.9 23.9-2.4 9.4-5 18.8-7.1 28.2-1 4.3-1.9 8.6-2.4 12.9-.1 1.3-.3 2.5-.2 3.8.1 1.3.4 2.2-.1 1.2 1.2 2.3.7 4.6-.5 6.3 1.3 6.2 6.5 10.9 12.1 14.2 10.4 6 22.2 9.3 33.9 11.9 40.7 8.8 83.8 11.5 125 4.5 23-3.9 43.4-10.4 62.2-20.8 7.2-4 14.4-8.1 21.1-12.9 2.3-1.6 4.7-3.3 6.7-5.3-1.1-2.5-.6-5.6 2.3-7 .2-.2.4-.4.6-.5.2-.4.3-1 .5-1.9C384.2 355.8 382.5 347.2 381.2 339.4z"/><path fill="#EF4823" d="M442.2,352.9c-11.9-18-32.4-29-53.5-31.7c0.8,3.9,1.7,7.8,2.4,11.7c1.6,8.6,3.4,17.6,3.1,26.5c-0.1,3.2-0.3,6.8-1.5,9.9c3,9.8-20.2,22.6-25.5,25.7c-17.8,10.5-35.9,18.7-56.1,23.7c-44.1,10.9-90.1,9.9-134.6,2.4c-23.6-4-74.1-12.9-69-46.8c0.1-0.5,0.2-0.9,0.3-1.3c-0.3-7.9,2.7-16.8,4.3-23.4c0.9-3.5,1.8-7.1,2.7-10.6c-11.8,3.6-23.1,9-33.1,16.1c-11.3,7.9-23.3,18.8-27.1,32.7c-8,29.2,18,52.6,42.1,63c18.6,8.1,38.7,12.2,58.6,15c18.3,2.6,36.8,4.8,55.1,6.7c41,4.3,83.1,5.7,123.8-2c38.8-7.3,77.2-24.2,100.6-57.3c6.3-8.9,12.5-19,14-29.9C450.7,372.7,448.2,361.9,442.2,352.9z"/><path d="M387.1,310.1c-0.1,0-0.3,0-0.4,0c-1.3-6.5-4.2-13-6.3-19.2c-2.7-7.8-5.6-15.6-8.3-23.4c-10.4-29.9-15.5-61-23.3-91.5c-3.9-15.3-6.5-30.9-10.2-46.3c-3.5-14.8-9.2-28.8-14.4-43c-4.1-11.1-7.6-22.3-9.1-34c-0.3-1.9-1.3-3.3-2.6-4c-2.6-10-22-14.7-30.7-16.2c-12.2-2.2-24.7-3-37.1-3.1c-7.6-0.1-15.2,0.1-22.9,0.2c-5.3,0.1-10.7-0.2-16,0.5c-15.4,2-43.6,13.1-41.1,30.4c-2.9,3.2-3.8,9.1-4.4,12.8c-1.3,7.4-1.4,15.1-3.1,22.4c-1.7,7.5-2.1,15.7-3.3,23.3c-1.3,8.4-2.6,16.9-3.9,25.3c-2.4,16-4.3,32.1-6.7,48.1c-2.7,18.1-5.9,36.1-9.3,54.1c-0.9,1.1-1.3,2.6-0.8,4.3c-2.4,12.5-4.8,25.1-7.2,37.6c-2.2,11.3-3.9,22.8-6.5,34c-0.4,1.6-0.8,3.2-1.2,4.7c-31.7,7.6-75,33.5-75.9,69.7c-1.4,0.9-2.4,2.5-2.3,4.7c1.2,22.2,4,44.2,19.6,61.2c8.3,9,19.9,15.2,30.8,20.4c12.1,5.7,25,9.9,37.8,13.5c25.9,7.1,52.4,10.6,79.1,12.9c27.8,2.5,55.9,3.7,83.8,1.3c19.8-1.7,39.5-5.6,58.3-12c18.4-6.2,35-15.7,51.2-26.1c26.9-17.3,54-39.2,55.2-73.5c0.4-0.9,0.7-1.8,1.1-2.7C474,351.5,428.4,313.4,387.1,310.1z M180.9,50.5c6.2-4.7,14.1-7.1,21.6-8.9c10.2-2.4,21.3-1.2,31.7-1.4c14-0.2,27.9,0.4,41.8,2.3c7.8,1.1,16,2.7,22.9,6.5c0.8,0.5,2,1.3,2.4,1.8c0.2,0.2,0.2,0.4,0.3,0.5c-1.8,4.2-8.5,7.2-12.2,8.9c-13,6.3-27.7,6.7-41.8,6c-11-0.5-21.5-1.8-32.3-4.1c-12-2.5-26.9-7-39.2-3C175.6,56,177.2,53.2,180.9,50.5z M170.3,80.4c0.4-2.7,0.8-5.3,1.3-7.9c3.2,1.9,7.4,0,8.5-3c8.3-2.3,18.4,0.5,26.4,2.1c10.1,2,19.9,4.2,30.2,5c13.9,1,27.9,1.9,41.6-1.1c8.9-1.9,20.1-5.6,27.4-12.2c4.5,21.4,13.8,41.5,20.2,62.4c-1.9-0.1-3.7,0.8-4.8,2.9c-7.6,14.5-26.8,18.2-41.6,19.9c-13,1.5-26.3,1.2-39.4,2.1c-14.8,1-29.7,1.9-44.6,0.8c-9.1-0.7-26.3-1.8-30.8-11.6c-0.6-1.3-1.6-2.2-2.7-2.8C164.9,118.1,167.7,99.2,170.3,80.4z M159.3,155.9c0.2-1.6,0.5-3.3,0.7-4.9c7.5,7,19,9.5,29.1,10.7c16.8,2,34,1,50.9-0.1c14.7-1,29.6-0.6,44.2-2.6c16.6-2.2,35.2-7.7,44.8-22.2c0.2,0.7,0.3,1.3,0.5,2c2.5,11.2,5,22.4,7.5,33.6c-2.4,0-4.9,1.2-5.8,4.1c0.4-1.4-0.8,1.2-0.2,0.3c-0.4,0.6-1.2,1.5-1.5,1.8c-1.7,1.5-3.7,2.6-5.7,3.7c-5.1,2.7-10.8,4.3-16.3,5.9c-13.1,3.8-26.6,6.1-40.1,8.3c-15.1,2.4-30,4.4-45.4,3.9c-22.8-0.8-45.3-6.2-67.5-11.3C156.1,177.9,157.7,166.9,159.3,155.9z M152.8,199.8c23.1,5.2,46.2,10.3,70,11.4c16.4,0.7,32.3-1.7,48.4-4.4c14.8-2.4,29.7-5.1,44.1-9.6c8.3-2.6,18.9-6.2,24.2-13.6c2.9,13.3,5.9,26.6,9,39.8c-2.2,0.6-4.1,2.5-3.9,5.5c0.6,8.2-10.2,12.7-16.4,15.1c-10.8,4.2-22.1,7.5-33.2,10.5c-12.4,3.4-25,5.9-37.8,7.5c-10.7,1.3-21.5,1.3-32.2,1.7c-15,0.6-30.1,1.9-45.1,0.7c-12-1-28.9-3.4-35.3-15.1C147.6,232.8,150.3,216.3,152.8,199.8z M141.9,262.9c8.7,7.5,20.8,10.6,32.4,12c17.4,2.1,34.9,0.5,52.3-0.2c12.4-0.5,24.6-0.7,36.8-2.4c14.2-2,28.3-5.3,42.1-9.3c11.6-3.4,23.7-6.7,34.4-12.3c4.9-2.5,9.5-6.2,12.5-10.7c2.3,9,4.9,17.8,7.8,26.6c-1.8,0-3.6,0.8-4.6,3c-4.9,10.4-14.9,16.5-25.1,20.9c-12.6,5.4-25.3,9.8-38.7,12.4c-24.7,4.6-49.9,4-74.9,4.3c-15.6,0.2-31.2,0.2-46.8-1.7c-7.7-0.9-15.5-2.2-22.7-5c-4.6-1.8-10.1-4.9-10.8-9.2c0,0,0,0,0,0C138.3,281.6,140.1,272.3,141.9,262.9z M119.1,375.4c0.5,1,0.2,0.1,0.1-1.2c-0.1-1.3,0.1-2.5,0.2-3.8c0.5-4.4,1.4-8.7,2.4-12.9c2.1-9.5,4.8-18.8,7.1-28.2c2-7.9,3.4-15.9,4.9-23.9c6.9,5.3,16.7,7.8,24.7,9.3c17.1,3.3,34.8,3.5,52.2,3.4c22.7-0.1,45.4,0.3,67.9-2.3c14.5-1.6,28.8-4.7,42.5-9.7c11.2-4.1,22.8-8.8,32.1-16.4c4.3-3.5,7.9-7.6,10.6-12.3c4.5,12.5,10.2,25.3,12.6,38.3c1.5,7.9,3.3,15.8,4.6,23.7c1.3,7.8,3,16.4,1.8,24.3c-0.1,0.9-0.3,1.4-0.5,1.9c-0.2,0.2-0.4,0.3-0.6,0.5c-2.9,1.4-3.3,4.6-2.3,7c-2,2-4.4,3.7-6.7,5.3c-6.7,4.8-13.9,8.9-21.1,12.9c-18.9,10.5-39.2,16.9-62.2,20.8c-41.1,7-84.3,4.3-125-4.5c-11.7-2.5-23.4-5.9-33.9-11.9c-5.7-3.2-10.9-8-12.1-14.2C119.8,380,120.3,377.7,119.1,375.4z M410.5,452.6c-20.7,15.4-43.2,28.7-67.8,36.8c-26.5,8.8-54.7,11.5-82.5,11.6c-27.6,0.1-55.7-2-83-6c-31.4-4.5-63.5-11.5-91.5-26.9c-12.2-6.7-22.6-15.5-28.1-28.5c-0.8-2-1.5-4-2.2-6c18,23.3,50.7,34.1,79,39.8c18.5,3.7,37.2,5.4,55.9,7.8c19.8,2.5,39.7,4.3,59.7,5.2c41.3,1.8,84.1-0.8,123.2-15c13.5-4.9,27-11.7,39.1-20.3C411.8,451.7,411.2,452.2,410.5,452.6z M449.2,383.4c-1.6,10.9-7.8,21.1-14,29.9c-23.4,33.1-61.8,50-100.6,57.3c-40.7,7.6-82.8,6.2-123.8,2c-18.4-1.9-36.8-4.1-55.1-6.7c-20-2.8-40.1-7-58.6-15c-24.1-10.5-50.1-33.8-42.1-63c3.8-13.8,15.7-24.7,27.1-32.7c10.1-7,21.3-12.5,33.1-16.1c-0.9,3.5-1.8,7.1-2.7,10.6c-1.6,6.6-4.6,15.5-4.3,23.4c-0.2,0.4-0.3,0.8-0.3,1.3c-5.1,33.9,45.4,42.8,69,46.8c44.5,7.5,90.5,8.6,134.6-2.4c20.2-5,38.3-13.2,56.1-23.7c5.3-3.1,28.4-15.9,25.5-25.7c1.1-3.1,1.4-6.7,1.5-9.9c0.2-8.8-1.5-17.8-3.1-26.5c-0.7-3.9-1.6-7.8-2.4-11.7c21.1,2.7,41.6,13.7,53.5,31.7C448.2,361.9,450.7,372.7,449.2,383.4z"/></svg>