<svg xmlns="http://www.w3.org/2000/svg"  viewBox="0 0 48 48" width="48px" height="48px"><path fill="#c0e6ed" d="M45.901,8.883c-0.135-1.059-0.302-2.129-0.727-3.109c-0.472-1.086-1.346-2.084-2.505-2.325 c-0.513-0.107-1.045-0.06-1.568-0.02c-2.782,0.212-5.582,0.195-8.362-0.05c-1.824-0.161-3.639-0.42-5.466-0.554 c-3.504-0.257-7.041-0.05-10.491,0.613c-1.015,0.195-2.055,0.444-2.888,1.056c-1.108,0.813-1.704,2.179-1.882,3.542 c-0.178,1.363-0.072,3.165,0.118,4.526l-0.282,23.081c-0.068,1.684,0.006,3.374,0.22,5.046c0.09,0.706,0.241,1.472,0.787,1.927 c0.31,0.259,0.709,0.381,1.104,0.463c1.273,0.264,2.588,0.166,3.887,0.107c6.635-0.302,13.267-0.058,19.903,0.202 c1.841,0.072,3.709,0.104,5.496-0.344c0.656-0.165,1.349-0.434,1.694-1.016c0.219-0.369,0.265-0.813,0.305-1.24 c0.513-5.519,0.388-10.584,0.727-16.117C46.293,19.409,46.57,14.113,45.901,8.883z"/><path fill="#4b7bb2" d="M1.661,16.894c-0.006-1.251,0.126-2.679,1.148-3.433c0.551-0.406,1.263-0.53,1.947-0.62 c3.024-0.398,6.106-0.372,9.122,0.078c0.73,0.109,1.456,0.242,2.191,0.314c0.931,0.091,1.873,0.083,2.803-0.025 c0.879-0.102,1.752-0.292,2.637-0.268c0.884,0.024,1.812,0.299,2.378,0.963c0.606,0.712,0.68,1.708,0.72,2.633 c0.186,4.327,0.214,8.659,0.212,12.99c-0.001,1.526-0.052,3.188-1.047,4.365c-0.721,0.854-1.843,1.307-2.964,1.467 s-2.262,0.058-3.393-0.019c-4.089-0.279-8.092-0.227-12.191-0.266c-0.49-0.005-1.009-0.018-1.425-0.272 c-0.309-0.188-0.528-0.491-0.694-0.807c-1.05-1.995-0.228-4.409-0.435-6.643C2.55,26.049,1.671,19.032,1.661,16.894z"/><path fill="#1e4384" d="M11.984,35.054v4.903c0,0-0.586,3.415,3.596,3.292s10.271-0.394,13.793-0.149 c3.522,0.245,10.454,0.632,12.351,0.234c1.897-0.398,3.351-0.098,3.571-3.057c0.22-2.959,0.196-6.128,0.196-6.128L11.984,35.054z"/><path fill="#4b7bb2" d="M22.94,34.491l12.571-0.342l10.124,0.171l0.197-9.905l-21.13-0.185l0.199,6.13 C24.9,30.359,24.872,33.389,22.94,34.491z"/><path fill="#d6e5e5" d="M4.679,17.576c1.022,3.896,2.016,8.041,3.038,11.937c0.049,0.185,0.11,0.389,0.275,0.488 c0.097,0.058,0.214,0.069,0.326,0.079c0.864,0.074,1.727,0.147,2.591,0.221c0.319-2.454,0.898-4.996,2.012-7.205 c0.792,2.374,1.741,4.891,2.532,7.264c0.829-0.257,1.718-0.319,2.575-0.181c0.876-3.99,1.967-8.672,3.134-12.586 c-0.763-0.068-1.712-0.112-2.478-0.086c-0.114,0.004-0.238,0.012-0.324,0.088c-0.07,0.062-0.1,0.156-0.126,0.246 c-0.757,2.585-1.455,4.884-1.616,7.573c-0.636-2.776-1.259-5.232-2.331-7.87c-0.991-0.019-1.982-0.038-2.973-0.057 c-0.392,2.657-1.062,5.363-1.728,7.965c-0.624-2.769-1.041-5.092-1.859-7.81c-0.02-0.068-0.044-0.14-0.099-0.184 c-0.07-0.055-0.169-0.049-0.258-0.04C6.697,17.487,5.353,17.507,4.679,17.576z"/><polygon fill="#73a1b2" points="24.75,23.886 24.75,17.283 24.75,15.228 23.642,13.66 46.076,13.242 46.239,20.674 45.987,24.415"/><path fill="#010101" d="M25.314,26.585c-0.015-3.476,0.006-6.978-0.228-10.448c-0.09-1.337-0.468-2.64-1.758-3.275 c-1.421-0.7-2.963-0.326-4.457-0.154c-1.943,0.225-3.79-0.146-5.709-0.388c-1.912-0.241-3.844-0.314-5.769-0.218 c-0.926,0.046-1.852,0.131-2.771,0.257c-0.769,0.106-1.541,0.26-2.168,0.749C1.312,14,1.162,15.547,1.161,16.894 c0.034,3.612,0.841,7.174,1.031,10.772c0.08,1.521-0.249,3.039-0.093,4.558c0.127,1.241,0.603,2.829,1.946,3.223 c0.683,0.2,1.458,0.129,2.161,0.133c0.895,0.006,1.791,0.009,2.686,0.014c1.783,0.01,3.566,0.027,5.348,0.086 c1.705,0.057,3.412,0.244,5.118,0.261c1.467,0.015,3.013-0.231,4.197-1.16c1.045-0.82,1.513-2.036,1.672-3.323 C25.426,29.856,25.321,28.198,25.314,26.585z M23.418,33.538c-0.943,1.143-2.543,1.405-3.939,1.404 c-1.583-0.001-3.17-0.184-4.752-0.244c-3.084-0.117-6.171-0.094-9.257-0.123c-0.738-0.007-1.411,0.011-1.846-0.677 c-0.386-0.612-0.521-1.375-0.556-2.086c-0.069-1.384,0.197-2.762,0.124-4.146c-0.19-3.598-0.998-7.16-1.031-10.772 c0.001-1.111,0.055-2.556,1.16-3.164c0.637-0.351,1.445-0.398,2.153-0.475c0.798-0.087,1.599-0.145,2.402-0.173 c1.524-0.054,3.053-0.002,4.57,0.156c1.522,0.159,3.025,0.513,4.558,0.553c1.517,0.04,2.998-0.399,4.506-0.351 c0.646,0.021,1.335,0.179,1.829,0.618c0.557,0.495,0.688,1.272,0.741,1.978c0.23,3.092,0.207,6.223,0.229,9.322 c0.011,1.517,0.026,3.035,0.01,4.552C24.304,31.143,24.241,32.541,23.418,33.538z"/><path fill="#010101" d="M21.163,17.092c-0.483-0.041-0.967-0.071-1.452-0.085c-0.413-0.012-0.925-0.078-1.332,0.034 c-0.35,0.097-0.515,0.345-0.626,0.666c-0.177,0.511-0.308,1.046-0.456,1.566c-0.326,1.142-0.608,2.292-0.824,3.454 c-0.469-1.802-1.006-3.583-1.704-5.317c-0.085-0.211-0.243-0.362-0.482-0.367c-0.991-0.019-1.982-0.038-2.973-0.057 c-0.197-0.004-0.45,0.157-0.482,0.367c-0.3,1.991-0.735,3.955-1.213,5.909c-0.341-1.582-0.683-3.163-1.113-4.724 c-0.234-0.849-0.291-1.672-1.33-1.604c-0.832,0.054-1.667,0.063-2.497,0.141c-0.039,0.004-0.068,0.02-0.102,0.031 c-0.015,0.004-0.03,0.008-0.045,0.013c-0.03,0.012-0.061,0.023-0.087,0.04c-0.185,0.097-0.316,0.288-0.248,0.549 c0.742,2.833,1.442,5.676,2.159,8.515c0.174,0.688,0.349,1.376,0.526,2.064c0.143,0.557,0.219,1.243,0.497,1.754 c0.273,0.502,0.78,0.524,1.292,0.568c0.746,0.064,1.492,0.127,2.237,0.191c0.294,0.025,0.467-0.252,0.5-0.5 c0.264-1.988,0.71-3.967,1.463-5.829c0.696,2.008,1.424,4.005,2.099,6.021c0.085,0.254,0.343,0.428,0.615,0.349 c0.757-0.218,1.527-0.292,2.31-0.181c0.256,0.036,0.551-0.059,0.615-0.349c0.928-4.222,1.903-8.441,3.134-12.586 C21.744,17.392,21.476,17.119,21.163,17.092z M17.636,29.647c-0.627-0.045-1.243-0.006-1.859,0.125 c-0.773-2.276-1.61-4.53-2.374-6.81c-0.126-0.377-0.711-0.529-0.914-0.119c-1.079,2.179-1.644,4.53-1.995,6.922 c-0.49-0.042-0.98-0.083-1.469-0.125c-0.193-0.016-0.65,0.032-0.785-0.119c-0.137-0.153-0.165-0.617-0.217-0.817 c-0.327-1.26-0.647-2.522-0.964-3.785c-0.577-2.294-1.151-4.589-1.746-6.879c0.267-0.015,0.534-0.034,0.802-0.046 c0.319-0.014,0.802-0.121,1.166-0.087c0.089,0.214,0.141,0.464,0.2,0.672c0.094,0.335,0.185,0.671,0.271,1.008 c0.168,0.652,0.324,1.308,0.472,1.965c0.303,1.342,0.58,2.69,0.881,4.033c0.109,0.485,0.845,0.468,0.964,0 c0.642-2.51,1.256-5.03,1.663-7.59c0.735,0.014,1.471,0.028,2.206,0.042c0.949,2.439,1.613,4.961,2.199,7.51 c0.132,0.574,0.947,0.407,0.982-0.133c0.117-1.775,0.487-3.504,0.958-5.216c0.111-0.405,0.227-0.808,0.344-1.211 c0.054-0.187,0.109-0.373,0.163-0.559c0.01-0.033,0.221-0.5,0.1-0.42c0.231-0.151,0.961-0.002,1.24,0.008 c0.197,0.007,0.393,0.025,0.589,0.037C19.402,21.876,18.493,25.758,17.636,29.647z"/><path fill="#010101" d="M11.348,35.642c-0.07,1.917-0.094,4.014,0.361,5.891c0.449,1.853,2.156,2.17,3.84,2.216 c2.128,0.058,4.273-0.153,6.402-0.184c2.156-0.032,4.312-0.018,6.468,0.023c2.157,0.042,4.313,0.111,6.469,0.191 c2.06,0.076,4.145,0.253,6.204,0.099c1.461-0.11,3.729-0.278,4.4-1.847c0.378-0.883,0.325-2.015,0.393-2.958 c0.075-1.042,0.132-2.086,0.177-3.13c0.18-4.163,0.237-8.326,0.482-12.486c0.247-4.207,0.422-8.434,0.062-12.639 c-0.265-3.097-0.753-8.101-4.944-7.925c-2.122,0.089-4.217,0.228-6.344,0.149c-2.098-0.078-4.176-0.333-6.262-0.552 c-4.145-0.436-8.31-0.325-12.407,0.467c-1.668,0.323-3.226,0.886-4.197,2.365c-0.921,1.404-1.066,3.128-1.026,4.762 c0.021,0.875,0.105,1.744,0.222,2.611c0.086,0.635,1.049,0.364,0.964-0.266c-0.217-1.611-0.375-3.404,0.021-5 c0.43-1.734,1.547-2.826,3.267-3.284c3.562-0.947,7.474-1.082,11.134-0.836c1.908,0.128,3.801,0.403,5.705,0.57 c1.88,0.165,3.77,0.227,5.657,0.184c0.979-0.022,1.953-0.086,2.929-0.151c0.885-0.059,1.677,0.007,2.371,0.615 c1.347,1.179,1.569,3.171,1.764,4.839c0.443,3.787,0.404,7.611,0.227,11.414c-0.176,3.789-0.393,7.569-0.497,11.361 c-0.053,1.907-0.112,3.814-0.225,5.719c-0.053,0.894-0.117,1.788-0.198,2.68c-0.044,0.487-0.052,1.038-0.402,1.421 c-0.273,0.299-0.695,0.444-1.073,0.552c-1.786,0.513-3.705,0.443-5.542,0.374c-1.99-0.075-3.981-0.155-5.972-0.215 c-4.393-0.134-8.792-0.192-13.185-0.019c-1.013,0.04-2.029,0.123-3.043,0.095c-0.885-0.024-2.222-0.032-2.689-0.931 c-0.419-0.806-0.396-1.918-0.459-2.806c-0.08-1.122-0.093-2.245-0.053-3.369C12.372,34.999,11.372,35,11.348,35.642L11.348,35.642z"/><path fill="#010101" d="M45.783,12.742c-7.38,0.104-14.76,0.207-22.14,0.311c-0.643,0.009-0.645,1.009,0,1 c7.38-0.104,14.76-0.207,22.14-0.311C46.426,13.733,46.427,12.733,45.783,12.742L45.783,12.742z"/><path fill="#010101" d="M24.9,24.572c6.863-0.081,13.727,0.034,20.584,0.343c0.643,0.029,0.642-0.971,0-1 c-6.857-0.308-13.72-0.424-20.584-0.343C24.257,23.579,24.255,24.579,24.9,24.572L24.9,24.572z"/><path fill="#010101" d="M23.315,34.991c7.308-0.413,14.631-0.401,21.946-0.22c0.644,0.016,0.643-0.984,0-1 c-7.315-0.181-14.638-0.193-21.946,0.22C22.675,34.027,22.671,35.027,23.315,34.991L23.315,34.991z"/></svg>